<svg xmlns="http://www.w3.org/2000/svg" width="674" height="589" viewBox="0 0 674 589">
<title>Auth flow + queue</title>
<defs><marker id="ablauf-arrow" viewBox="0 0 10 10" refX="9" refY="5" markerWidth="7" markerHeight="7" orient="auto-start-reverse"><path d="M0,0 L10,5 L0,10 z" fill="#96a3ba"/></marker><marker id="ablauf-arrow-accent" viewBox="0 0 10 10" refX="9" refY="5" markerWidth="7" markerHeight="7" orient="auto-start-reverse"><path d="M0,0 L10,5 L0,10 z" fill="#f59e0b"/></marker></defs>
<rect x="0" y="0" width="674" height="589" fill="#12151c"/>
<path d="M380,88 L380,133" fill="none" stroke="#96a3ba" stroke-width="1.8" marker-end="url(#ablauf-arrow)"/>
<path d="M289.5,170 L140,170 L140,272" fill="none" stroke="#96a3ba" stroke-width="1.8" marker-end="url(#ablauf-arrow)"/>
<rect x="202.8" y="160" width="24" height="20" rx="4" fill="#12151c"/>
<text x="214.8" y="174.3" text-anchor="middle" font-family="Helvetica, Arial, sans-serif" font-size="13" fill="#96a3ba">no</text>
<path d="M380,207 L380,263" fill="none" stroke="#96a3ba" stroke-width="1.8" marker-end="url(#ablauf-arrow)"/>
<rect x="364.5" y="225" width="31" height="20" rx="4" fill="#12151c"/>
<text x="380" y="239.3" text-anchor="middle" font-family="Helvetica, Arial, sans-serif" font-size="13" fill="#96a3ba">yes</text>
<path d="M380,337 L380,512" fill="none" stroke="#96a3ba" stroke-width="1.8" marker-end="url(#ablauf-arrow)"/>
<rect x="368" y="414.5" width="24" height="20" rx="4" fill="#12151c"/>
<text x="380" y="428.8" text-anchor="middle" font-family="Helvetica, Arial, sans-serif" font-size="13" fill="#96a3ba">no</text>
<path d="M474.5,300 L580,300 L580,392" fill="none" stroke="#96a3ba" stroke-width="1.8" marker-end="url(#ablauf-arrow)"/>
<rect x="511.8" y="290" width="31" height="20" rx="4" fill="#12151c"/>
<text x="527.3" y="304.3" text-anchor="middle" font-family="Helvetica, Arial, sans-serif" font-size="13" fill="#96a3ba">yes</text>
<path d="M580,448 L580,540 L440,540" fill="none" stroke="#96a3ba" stroke-width="1.8" marker-end="url(#ablauf-arrow)"/>
<rect x="299" y="32" width="162" height="56" rx="28" fill="#162b22" stroke="#8ea3c4" stroke-width="2"/>
<text x="380" y="65" text-anchor="middle" font-family="Helvetica, Arial, sans-serif" font-size="15" fill="#e7edf7">Request arrives</text>
<polygon points="380,133 470.5,170 380,207 289.5,170" fill="#2e2618" stroke="#8ea3c4" stroke-width="2"/>
<text x="380" y="175" text-anchor="middle" font-family="Helvetica, Arial, sans-serif" font-size="15" fill="#e7edf7">Valid token?</text>
<rect x="55" y="272" width="170" height="56" rx="0" fill="#1e2530" stroke="#8ea3c4" stroke-width="2"/>
<text x="140" y="305" text-anchor="middle" font-family="Helvetica, Arial, sans-serif" font-size="15" fill="#e7edf7">401 Unauthorized</text>
<polygon points="380,263 474.5,300 380,337 285.5,300" fill="#2e2618" stroke="#8ea3c4" stroke-width="2"/>
<text x="380" y="305" text-anchor="middle" font-family="Helvetica, Arial, sans-serif" font-size="15" fill="#e7edf7">Rate limited?</text>
<rect x="320" y="512" width="120" height="56" rx="0" fill="#1e2530" stroke="#8ea3c4" stroke-width="2"/>
<text x="380" y="545" text-anchor="middle" font-family="Helvetica, Arial, sans-serif" font-size="15" fill="#e7edf7">Open room</text>
<rect x="507.5" y="392" width="145" height="56" rx="0" fill="#1e2530" stroke="#8ea3c4" stroke-width="2"/>
<text x="580" y="425" text-anchor="middle" font-family="Helvetica, Arial, sans-serif" font-size="15" fill="#e7edf7">Queue request</text>
</svg>
