<svg xmlns="http://www.w3.org/2000/svg" width="1127" height="689" viewBox="0 0 1127 689">
<title>Intake and sizing</title>
<defs><marker id="ablauf-arrow" viewBox="0 0 10 10" refX="9" refY="5" markerWidth="7" markerHeight="7" orient="auto-start-reverse"><path d="M0,0 L10,5 L0,10 z" fill="#96a3ba"/></marker><marker id="ablauf-arrow-accent" viewBox="0 0 10 10" refX="9" refY="5" markerWidth="7" markerHeight="7" orient="auto-start-reverse"><path d="M0,0 L10,5 L0,10 z" fill="#f59e0b"/></marker></defs>
<rect x="0" y="0" width="1127" height="689" fill="#12151c"/>
<path d="M600,88 L600,172" fill="none" stroke="#96a3ba" stroke-width="1.8" marker-end="url(#ablauf-arrow)"/>
<path d="M600,228 L600,312" fill="none" stroke="#96a3ba" stroke-width="1.8" marker-end="url(#ablauf-arrow)"/>
<path d="M600,368 L600,443" fill="none" stroke="#96a3ba" stroke-width="1.8" marker-end="url(#ablauf-arrow)"/>
<path d="M453,480 L200,480 L200,612" fill="none" stroke="#96a3ba" stroke-width="1.8" marker-end="url(#ablauf-arrow)"/>
<rect x="314.5" y="470" width="24" height="20" rx="4" fill="#12151c"/>
<text x="326.5" y="484.3" text-anchor="middle" font-family="Helvetica, Arial, sans-serif" font-size="13" fill="#96a3ba">no</text>
<path d="M747,480 L1000,480 L1000,612" fill="none" stroke="#96a3ba" stroke-width="1.8" marker-end="url(#ablauf-arrow)"/>
<rect x="858" y="470" width="31" height="20" rx="4" fill="#12151c"/>
<text x="873.5" y="484.3" text-anchor="middle" font-family="Helvetica, Arial, sans-serif" font-size="13" fill="#96a3ba">yes</text>
<rect x="475" y="32" width="250" height="56" rx="0" fill="#1e2530" stroke="#8ea3c4" stroke-width="2"/>
<text x="600" y="65" text-anchor="middle" font-family="Helvetica, Arial, sans-serif" font-size="15" fill="#e7edf7">Human or LLM files a request</text>
<rect x="475" y="172" width="250" height="56" rx="0" fill="#1e2530" stroke="#8ea3c4" stroke-width="2"/>
<text x="600" y="205" text-anchor="middle" font-family="Helvetica, Arial, sans-serif" font-size="15" fill="#e7edf7">Issue intake, needs-preparation</text>
<rect x="475" y="312" width="250" height="56" rx="0" fill="#1e2530" stroke="#8ea3c4" stroke-width="2"/>
<text x="600" y="345" text-anchor="middle" font-family="Helvetica, Arial, sans-serif" font-size="15" fill="#e7edf7">Preparer grounds and shapes it</text>
<polygon points="600,443 747,480 600,517 453,480" fill="#2e2618" stroke="#8ea3c4" stroke-width="2"/>
<text x="600" y="485" text-anchor="middle" font-family="Helvetica, Arial, sans-serif" font-size="15" fill="#e7edf7">Reviewable in one sitting?</text>
<rect x="75" y="612" width="250" height="56" rx="0" fill="#1e2530" stroke="#8ea3c4" stroke-width="2"/>
<text x="200" y="645" text-anchor="middle" font-family="Helvetica, Arial, sans-serif" font-size="15" fill="#e7edf7">Coordination parent, child intakes</text>
<rect x="894" y="612" width="212" height="56" rx="28" fill="#162b22" stroke="#8ea3c4" stroke-width="2"/>
<text x="1000" y="645" text-anchor="middle" font-family="Helvetica, Arial, sans-serif" font-size="15" fill="#e7edf7">To clearance, chart 2</text>
</svg>
